<?xml version="1.0" encoding="UTF-8"?>
<svg xmlns="http://www.w3.org/2000/svg" viewBox="280 347 2560 512">
<style>.st0{fill:#34416D;}.st1{fill:#637890;stroke:#FFFFFF;stroke-width:18;}.st2{fill:#C4A25B;stroke:#FFFFFF;stroke-width:18;}</style>
<rect x="300" y="367.52" class="st0" width="472.97" height="472.11"/>
<rect x="418.27" y="485.81" class="st1" width="235.88" height="235.89"/>
<rect x="536.17" y="485.92" class="st2" width="117.95" height="117.94"/>
<g><path class="st0" d="M897.88,364.38h146.66c58.33,0,77.33,35.66,77.33,74c0,36.33-23,73.32-76.66,73.32h-97.33v90.66h-49.99
			V364.38z M947.87,474.37h80.33c28.33,0,43.66-7.67,43.66-35.99c0-29.33-20.66-36.67-40-36.67h-84V474.37z"/>
		<path class="st0" d="M1329.52,562.02c0,9.67,7,10.01,10,10.01c4.34,0,11.33-0.34,15-1v32.33c-9,1.67-17,4-32.67,4
			c-30,0-33.33-16.01-34.66-22.67c-9,8.67-31.33,24.33-82.99,24.33c-46,0-72-20.66-72-55.33c0-48.66,50-52.99,79.33-55.66
			c66-6.34,73-8.67,73-22.33c0-20.34-23.33-25.34-50-25.34c-30.33,0-46.66,9.67-48.33,29.33h-45c6.67-46.32,41-60.66,93.33-60.66
			c92.33,0,94.99,36.33,94.99,59.34V562.02z M1283.53,514.37c-13.34,5.66-27.67,7.34-60.33,11c-34.67,3.99-42.99,11.66-42.99,26.66
			c0,23.33,21.33,27.66,37,27.66c24.66,0,66.33-9.33,66.33-48.33V514.37z"/>
		<path class="st0" d="M1381.18,425.7h46v34.34h0.67c12.33-20,31.33-39,66.66-39c7,0,12.33,0.68,18.33,1.67v45.33
			c-12.66-3.99-21.33-4.33-29.33-4.33c-23.33,0-56.33,12.34-56.33,53.34v85.32h-46V425.7z"/>
		<path class="st0" d="M1731.83,562.02c0,9.67,7,10.01,10.01,10.01c4.33,0,11.33-0.34,15-1v32.33c-9.01,1.67-16.99,4-32.66,4
			c-29.99,0-33.34-16.01-34.67-22.67c-9,8.67-31.33,24.33-82.99,24.33c-46,0-72-20.66-72-55.33c0-48.66,50-52.99,79.33-55.66
			c65.99-6.34,73-8.67,73-22.33c0-20.34-23.34-25.34-50.01-25.34c-30.33,0-46.67,9.67-48.33,29.33h-45
			c6.67-46.32,41-60.66,93.33-60.66c92.32,0,94.99,36.33,94.99,59.34V562.02z M1685.85,514.37c-13.34,5.66-27.67,7.34-60.34,11
			c-34.67,3.99-42.99,11.66-42.99,26.66c0,23.33,21.33,27.66,37,27.66c24.66,0,66.34-9.33,66.34-48.33V514.37z"/>
		<path class="st0" d="M1986.82,602.36h-46.01v-24.33h-0.65c-3.34,10.67-31.02,30.99-67.67,30.99c-67.33,0-96.67-48.99-96.67-94.32
			c0-44.66,29.33-93.67,96.67-93.67c27.67,0,54,8.67,67.67,30.01h0.65v-90.66h46.01V602.36z M1883.49,573.69
			c42.99,0,59.32-28.99,59.32-58.99c0-29.33-16.33-58.34-59.32-58.34c-43.34,0-59.66,29.01-59.66,58.34
			C1823.83,544.69,1840.15,573.69,1883.49,573.69z"/>
		<path class="st0" d="M2032.13,360.37h46.01v37.33h-46.01V360.37z M2032.13,425.7h46.01v176.66h-46.01V425.7z"/>
		<path class="st0" d="M2331.79,425.04v171.32c0,42-27,79.34-105,79.34c-54.66,0-99.66-12-103.65-57.67h48
			c4.67,22.66,26.34,26.32,54.33,26.32c52.66,0,60.33-28,60.33-50.99v-21.33h-1c-22.01,21-45.02,28.33-72.01,28.33
			c-46.66,0-98.31-23.67-98.31-89.33c0-45.34,29.99-90,97.99-90c35.66,0,61.99,11.34,72.66,30.01h0.67v-26H2331.79z M2226.46,565.03
			c34.99,0,59.34-22.67,59.34-55.33c0-42.33-39.67-53.34-63.33-53.34c-34.33,0-60.01,22.33-60.01,54
			C2162.46,536.36,2178.13,565.03,2226.46,565.03z"/>
		<path class="st0" d="M2514.44,497.04c0-18.34-2.32-40.67-43.32-40.67c-16.01,0-48.01,9.01-48.01,47.67v98.32h-45.99V425.7h45.99
			v26.68h0.67c15-19,38.33-31.34,69.67-31.34c20.66,0,49.99,3.67,62.33,32.68c11.33-16.34,34.66-32.68,71.66-32.68
			c28.32,0,70.31,10.01,70.31,64v117.33h-45.99V497.04c0-18.34-2.33-40.67-43.34-40.67c-15.99,0-47.98,9.01-47.98,47.67v98.32
			h-46.01V497.04z"/>
	</g>
<g><path class="st0" d="M911.64,728.44h21.4l27.56,106.79h-17.44l-6.45-26.18h-30.64l-6.74,26.18h-17.44L911.64,728.44z
			 M933.93,795.45l-12.02-52.66h-0.29l-12.46,52.66H933.93z"/>
		<path class="st0" d="M986.7,802.18v2.68c0,13.01,5.57,19.59,17.15,19.59c10.55,0,15.83-7.62,15.83-15.55
			c0-11.22-5.57-16.16-14.95-19l-11.44-4.03c-15.25-5.99-21.84-14.07-21.84-29.32c0-19.45,12.9-30.22,32.54-30.22
			c26.82,0,29.61,17.06,29.61,28.13v2.39h-16.71v-2.24c0-9.72-4.25-15.41-14.66-15.41c-7.18,0-14.07,4.05-14.07,15.41
			c0,9.12,4.54,13.76,15.68,18.1l11.29,4.18c14.81,5.39,21.25,13.62,21.25,28.28c0,22.72-13.48,32.15-34.59,32.15
			c-25.95,0-31.81-17.65-31.81-32.61v-2.54H986.7z"/>
		<path class="st0" d="M1068.65,802.18v2.68c0,13.01,5.57,19.59,17.15,19.59c10.55,0,15.83-7.62,15.83-15.55
			c0-11.22-5.57-16.16-14.95-19l-11.44-4.03c-15.25-5.99-21.84-14.07-21.84-29.32c0-19.45,12.9-30.22,32.54-30.22
			c26.82,0,29.61,17.06,29.61,28.13v2.39h-16.71v-2.24c0-9.72-4.25-15.41-14.66-15.41c-7.18,0-14.07,4.05-14.07,15.41
			c0,9.12,4.54,13.76,15.68,18.1l11.29,4.18c14.81,5.39,21.25,13.62,21.25,28.28c0,22.72-13.48,32.15-34.59,32.15
			c-25.95,0-31.81-17.65-31.81-32.61v-2.54H1068.65z"/>
		<path class="st0" d="M1137.69,728.44h56.58v14.35h-39.87v29.63h37.52v14.35h-37.52v34.11h41.04v14.36h-57.75V728.44z"/>
		<path class="st0" d="M1231.2,742.79h-24.92v-14.35h66.11v14.35h-24.48v92.44h-16.71V742.79z"/>
		<path class="st0" d="M1328.83,728.44h26.09l18.47,79.12h0.3l18.17-79.12h25.51v106.79h-15.83v-88.84h-0.29l-21.11,88.84h-14.07
			l-21.1-88.84h-0.3v88.84h-15.83V728.44z"/>
		<path class="st0" d="M1460.31,728.44h21.4l27.56,106.79h-17.44l-6.45-26.18h-30.64l-6.74,26.18h-17.44L1460.31,728.44z
			 M1482.6,795.45l-12.02-52.66h-0.29l-12.46,52.66H1482.6z"/>
		<path class="st0" d="M1522.47,728.44h20.37l30.34,79.57h0.3v-79.57h15.83v106.79h-20.38l-30.34-81.67h-0.3v81.67h-15.83V728.44z"
			/>
		<path class="st0" d="M1632.25,728.44h21.4l27.55,106.79h-17.44l-6.45-26.18h-30.64l-6.74,26.18h-17.44L1632.25,728.44z
			 M1654.54,795.45l-12.02-52.66h-0.29l-12.46,52.66H1654.54z"/>
		<path class="st0" d="M1746.15,822.81h-0.3c-4.54,9.87-10.54,14.51-22.87,14.51c-22.87,0-31.07-17.34-31.07-55.49
			c0-38.14,10.54-55.49,34.74-55.49c26.24,0,30.64,21.09,30.64,30.82v1.94h-15.83v-2.54c0-7.93-3.22-17.36-14.66-17.36
			c-11.88,0-18.18,8.08-18.18,42.18c0,34.4,5.57,43.07,16.86,43.07c12.76,0.15,17.44-9.26,17.44-32.61h-17.58V779h33.42v56.24h-12.6
			V822.81z"/>
		<path class="st0" d="M1778.99,728.44h56.57v14.35h-39.86v29.63h37.52v14.35h-37.52v34.11h41.05v14.36h-57.76V728.44z"/>
		<path class="st0" d="M1855.36,728.44h26.08l18.48,79.12h0.3l18.18-79.12h25.5v106.79h-15.83v-88.84h-0.28l-21.12,88.84h-14.08
			l-21.09-88.84h-0.3v88.84h-15.83V728.44z"/>
		<path class="st0" d="M1967.05,728.44h56.59v14.35h-39.86v29.63h37.52v14.35h-37.52v34.11h41.04v14.36h-57.76V728.44z"/>
		<path class="st0" d="M2043.43,728.44h20.36l30.34,79.57h0.3v-79.57h15.83v106.79h-20.38l-30.34-81.67h-0.3v81.67h-15.82V728.44z"
			/>
		<path class="st0" d="M2150.56,742.79h-24.92v-14.35h66.12v14.35h-24.48v92.44h-16.72V742.79z"/>
		<path class="st0" d="M2312.55,796.95v2.24c0,19.3-7.63,38.14-32.26,38.14c-26.38,0-34.59-17.34-34.59-55.49
			c0-38.14,8.21-55.49,34.74-55.49c29.76,0,31.52,22.44,31.52,33.51v1.94h-16.71v-1.79c0-9.87-2.93-21.24-14.96-20.79
			c-12.31,0-17.88,7.78-17.88,42.18c0,34.4,5.57,43.07,17.88,43.07c13.93,0,15.54-15.84,15.54-25.72v-1.79H2312.55z"/>
		<path class="st0" d="M2327.65,781.83c0-38.14,10.56-55.49,34.59-55.49c24.04,0,34.6,17.36,34.6,55.49
			c0,38.15-10.56,55.49-34.6,55.49C2338.21,837.32,2327.65,819.98,2327.65,781.83z M2380.12,781.38c0-35.9-7.9-42.18-17.88-42.18
			c-9.97,0-17.88,6.28-17.88,42.18c0,36.8,7.92,43.07,17.88,43.07C2372.22,824.46,2380.12,818.19,2380.12,781.38z"/>
		<path class="st0" d="M2412.27,815.49h16.7v19.74h-16.7V815.49z"/>
		<path class="st0" d="M2491.86,728.44h16.7v92.43h40.46v14.36h-57.15V728.44z"/>
		<path class="st0" d="M2562.8,728.44h16.71v92.43h40.46v14.36h-57.17V728.44z"/>
		<path class="st0" d="M2700,796.95v2.24c0,19.3-7.62,38.14-32.26,38.14c-26.38,0-34.58-17.34-34.58-55.49
			c0-38.14,8.2-55.49,34.74-55.49c29.75,0,31.5,22.44,31.5,33.51v1.94h-16.7v-1.79c0-9.87-2.94-21.24-14.97-20.79
			c-12.3,0-17.88,7.78-17.88,42.18c0,34.4,5.58,43.07,17.88,43.07c13.94,0,15.55-15.84,15.55-25.72v-1.79H2700z"/>
	</g>
</svg>
