<?xml version="1.0" encoding="utf-8"?>
<!-- Generator: Adobe Illustrator 28.0.0, SVG Export Plug-In . SVG Version: 6.00 Build 0)  -->
<svg version="1.1" id="Capa_1" xmlns="http://www.w3.org/2000/svg" xmlns:xlink="http://www.w3.org/1999/xlink" x="0px" y="0px"
	 viewBox="0 0 5000 2000" style="enable-background:new 0 0 5000 2000;" xml:space="preserve">
<style type="text/css">
	.st0{fill:#F5F3EF;}
	.st1{fill:#F47D30;}
	.st2{fill:#C9D4E0;stroke:#FFFFFF;stroke-width:26;}
	.st3{fill:#F47D30;stroke:#FFFFFF;stroke-width:26;}
</style>
<g>
	<rect x="500" y="392.53" class="st0" width="777.53" height="776.11"/>
	<g>
		<path class="st0" d="M1482.87,387.37h241.09c95.89,0,127.12,58.62,127.12,121.64c0,59.73-37.81,120.54-126.02,120.54h-160.01
			v149.04h-82.18V387.37z M1565.06,568.18h132.06c46.58,0,71.77-12.62,71.77-59.17c0-48.22-33.96-60.28-65.76-60.28h-138.08V568.18z
			"/>
		<path class="st0" d="M2192.45,712.28c0,15.9,11.51,16.45,16.44,16.45c7.13,0,18.63-0.55,24.66-1.64v53.14
			c-14.8,2.75-27.94,6.58-53.71,6.58c-49.31,0-54.79-26.32-56.99-37.27c-14.79,14.25-51.5,39.99-136.43,39.99
			c-75.62,0-118.36-33.96-118.36-90.96c0-79.99,82.19-87.1,130.41-91.49c108.5-10.42,120-14.25,120-36.71
			c0-33.43-38.35-41.66-82.19-41.66c-49.86,0-76.71,15.9-79.46,48.22h-73.97c10.96-76.15,67.39-99.72,153.42-99.72
			c151.78,0,156.16,59.73,156.16,97.55V712.28z M2116.84,633.94c-21.93,9.31-45.48,12.06-99.19,18.09
			c-56.99,6.56-70.68,19.18-70.68,43.83c0,38.35,35.06,45.47,60.82,45.47c40.55,0,109.04-15.34,109.04-79.46V633.94z"/>
		<path class="st0" d="M2277.38,488.17h75.62v56.44h1.1c20.27-32.88,51.5-64.12,109.58-64.12c11.51,0,20.27,1.11,30.14,2.75v74.51
			c-20.82-6.56-35.07-7.12-48.22-7.12c-38.35,0-92.6,20.28-92.6,87.68v140.27h-75.62V488.17z"/>
		<path class="st0" d="M2853.82,712.28c0,15.9,11.51,16.45,16.45,16.45c7.12,0,18.62-0.55,24.65-1.64v53.14
			c-14.81,2.75-27.93,6.58-53.69,6.58c-49.31,0-54.8-26.32-57-37.27c-14.79,14.25-51.5,39.99-136.43,39.99
			c-75.62,0-118.36-33.96-118.36-90.96c0-79.99,82.19-87.1,130.41-91.49c108.49-10.42,120.01-14.25,120.01-36.71
			c0-33.43-38.37-41.66-82.2-41.66c-49.86,0-76.72,15.9-79.46,48.22h-73.97c10.96-76.15,67.39-99.72,153.42-99.72
			c151.77,0,156.16,59.73,156.16,97.55V712.28z M2778.23,633.94c-21.94,9.31-45.49,12.06-99.2,18.09
			c-56.99,6.56-70.68,19.18-70.68,43.83c0,38.35,35.06,45.47,60.82,45.47c40.55,0,109.05-15.34,109.05-79.46V633.94z"/>
		<path class="st0" d="M3273,778.59h-75.64V738.6h-1.06c-5.5,17.54-50.99,50.94-111.25,50.94c-110.69,0-158.91-80.54-158.91-155.05
			c0-73.43,48.22-153.99,158.91-153.99c45.49,0,88.77,14.26,111.25,49.33h1.06V380.78H3273V778.59z M3103.14,731.46
			c70.68,0,97.52-47.66,97.52-96.97c0-48.22-26.85-95.91-97.52-95.91c-71.25,0-98.08,47.69-98.08,95.91
			C3005.06,683.8,3031.89,731.46,3103.14,731.46z"/>
		<path class="st0" d="M3347.5,380.78h75.64v61.36h-75.64V380.78z M3347.5,488.17h75.64v290.42h-75.64V488.17z"/>
		<path class="st0" d="M3840.1,487.09v281.64c0,69.04-44.38,130.43-172.61,130.43c-89.85,0-163.83-19.73-170.4-94.8h78.9
			c7.67,37.24,43.3,43.27,89.32,43.27c86.57,0,99.19-46.02,99.19-83.82v-35.07h-1.64c-36.18,34.52-74,46.58-118.39,46.58
			c-76.71,0-161.61-38.91-161.61-146.85c0-74.53,49.31-147.96,161.08-147.96c58.62,0,101.91,18.64,119.45,49.33h1.11v-42.74H3840.1z
			 M3666.96,717.23c57.53,0,97.54-37.27,97.54-90.96c0-69.59-65.22-87.68-104.11-87.68c-56.44,0-98.65,36.71-98.65,88.77
			C3561.74,670.09,3587.5,717.23,3666.96,717.23z"/>
		<path class="st0" d="M4140.37,605.45c0-30.15-3.81-66.87-71.21-66.87c-26.32,0-78.92,14.81-78.92,78.37v161.64h-75.6V488.17h75.6
			v43.85h1.11c24.65-31.24,63.01-51.52,114.53-51.52c33.96,0,82.18,6.03,102.47,53.72c18.62-26.87,56.98-53.72,117.81-53.72
			c46.55,0,115.59,16.45,115.59,105.22v192.87h-75.6V605.45c0-30.15-3.84-66.87-71.25-66.87c-26.29,0-78.88,14.81-78.88,78.37
			v161.64h-75.64V605.45z"/>
	</g>
	<g>
		<path class="st0" d="M1505.5,985.86h35.18l45.31,175.56h-28.68l-10.6-43.03h-50.37l-11.09,43.03h-28.67L1505.5,985.86z
			 M1542.13,1096.02l-19.76-86.57h-0.48l-20.48,86.57H1542.13z"/>
		<path class="st0" d="M1628.88,1107.08v4.41c0,21.39,9.16,32.21,28.19,32.21c17.35,0,26.03-12.52,26.03-25.56
			c0-18.45-9.16-26.56-24.57-31.24l-18.8-6.63c-25.06-9.84-35.9-23.12-35.9-48.2c0-31.97,21.21-49.68,53.49-49.68
			c44.1,0,48.67,28.05,48.67,46.25v3.92h-27.47v-3.68c0-15.98-6.98-25.34-24.1-25.34c-11.8,0-23.13,6.65-23.13,25.34
			c0,14.99,7.47,22.61,25.78,29.75l18.56,6.87c24.34,8.87,34.94,22.39,34.94,46.49c0,37.36-22.17,52.85-56.86,52.85
			c-42.65,0-52.3-29.02-52.3-53.61v-4.17H1628.88z"/>
		<path class="st0" d="M1763.59,1107.08v4.41c0,21.39,9.16,32.21,28.19,32.21c17.35,0,26.03-12.52,26.03-25.56
			c0-18.45-9.16-26.56-24.58-31.24l-18.8-6.63c-25.06-9.84-35.9-23.12-35.9-48.2c0-31.97,21.21-49.68,53.49-49.68
			c44.1,0,48.67,28.05,48.67,46.25v3.92h-27.47v-3.68c0-15.98-6.99-25.34-24.1-25.34c-11.8,0-23.14,6.65-23.14,25.34
			c0,14.99,7.47,22.61,25.78,29.75l18.56,6.87c24.34,8.87,34.94,22.39,34.94,46.49c0,37.36-22.17,52.85-56.87,52.85
			c-42.65,0-52.3-29.02-52.3-53.61v-4.17H1763.59z"/>
		<path class="st0" d="M1877.09,985.86h93.01v23.59h-65.54v48.71h61.68v23.59h-61.68v56.07h67.47v23.61h-94.94V985.86z"/>
		<path class="st0" d="M2030.83,1009.45h-40.97v-23.59h108.69v23.59h-40.25v151.97h-27.47V1009.45z"/>
		<path class="st0" d="M2191.32,985.86h42.89l30.36,130.07h0.49l29.88-130.07h41.93v175.56h-26.03v-146.05h-0.48l-34.71,146.05
			h-23.13l-34.69-146.05h-0.49v146.05h-26.02V985.86z"/>
		<path class="st0" d="M2407.46,985.86h35.18l45.3,175.56h-28.68l-10.6-43.03h-50.37l-11.09,43.03h-28.68L2407.46,985.86z
			 M2444.1,1096.02l-19.76-86.57h-0.48l-20.49,86.57H2444.1z"/>
		<path class="st0" d="M2509.64,985.86h33.49l49.88,130.8h0.49v-130.8h26.03v175.56h-33.5l-49.88-134.26h-0.49v134.26h-26.02V985.86
			z"/>
		<path class="st0" d="M2690.13,985.86h35.18l45.29,175.56h-28.67l-10.6-43.03h-50.37l-11.08,43.03h-28.68L2690.13,985.86z
			 M2726.76,1096.02l-19.76-86.57h-0.48l-20.48,86.57H2726.76z"/>
		<path class="st0" d="M2877.37,1141h-0.49c-7.47,16.23-17.33,23.85-37.6,23.85c-37.6,0-51.08-28.51-51.08-91.23
			c0-62.7,17.33-91.23,57.11-91.23c43.14,0,50.37,34.67,50.37,50.66v3.19h-26.03v-4.17c0-13.04-5.3-28.53-24.1-28.53
			c-19.53,0-29.88,13.28-29.88,69.35c0,56.55,9.16,70.81,27.71,70.81c20.97,0.25,28.67-15.23,28.67-53.61h-28.91v-21.13h54.94v92.45
			h-20.71V1141z"/>
		<path class="st0" d="M2931.35,985.86h93v23.59h-65.53v48.71h61.68v23.59h-61.68v56.07h67.48v23.61h-94.95V985.86z"/>
		<path class="st0" d="M3056.9,985.86h42.88l30.37,130.07h0.49l29.88-130.07h41.92v175.56h-26.02v-146.05h-0.47l-34.72,146.05
			h-23.15l-34.67-146.05h-0.49v146.05h-26.03V985.86z"/>
		<path class="st0" d="M3240.51,985.86h93.02v23.59h-65.53v48.71h61.68v23.59h-61.68v56.07h67.46v23.61h-94.95V985.86z"/>
		<path class="st0" d="M3366.07,985.86h33.48l49.88,130.8h0.49v-130.8h26.03v175.56h-33.5l-49.88-134.26h-0.49v134.26h-26V985.86z"
			/>
		<path class="st0" d="M3542.19,1009.45h-40.97v-23.59h108.7v23.59h-40.24v151.97h-27.49V1009.45z"/>
		<path class="st0" d="M3808.49,1098.48v3.68c0,31.73-12.55,62.7-53.03,62.7c-43.36,0-56.86-28.51-56.86-91.23
			c0-62.7,13.5-91.23,57.11-91.23c48.93,0,51.81,36.89,51.81,55.09v3.19h-27.47v-2.95c0-16.23-4.81-34.92-24.59-34.18
			c-20.24,0-29.4,12.79-29.4,69.35c0,56.55,9.16,70.81,29.4,70.81c22.9,0,25.54-26.05,25.54-42.28v-2.95H3808.49z"/>
		<path class="st0" d="M3833.3,1073.62c0-62.7,17.36-91.23,56.87-91.23c39.53,0,56.89,28.53,56.89,91.23
			c0,62.72-17.36,91.23-56.89,91.23C3850.66,1164.85,3833.3,1136.34,3833.3,1073.62z M3919.56,1072.89
			c0-59.02-12.99-69.35-29.4-69.35c-16.38,0-29.4,10.33-29.4,69.35c0,60.5,13.01,70.81,29.4,70.81
			C3906.56,1143.7,3919.56,1133.39,3919.56,1072.89z"/>
		<path class="st0" d="M3972.41,1128.96h27.45v32.46h-27.45V1128.96z"/>
		<path class="st0" d="M4103.25,985.86h27.45v151.95h66.51v23.61h-93.96V985.86z"/>
		<path class="st0" d="M4219.86,985.86h27.47v151.95h66.51v23.61h-93.98V985.86z"/>
		<path class="st0" d="M4445.42,1098.48v3.68c0,31.73-12.53,62.7-53.03,62.7c-43.36,0-56.84-28.51-56.84-91.23
			c0-62.7,13.48-91.23,57.11-91.23c48.91,0,51.79,36.89,51.79,55.09v3.19H4417v-2.95c0-16.23-4.83-34.92-24.61-34.18
			c-20.22,0-29.4,12.79-29.4,69.35c0,56.55,9.18,70.81,29.4,70.81c22.92,0,25.56-26.05,25.56-42.28v-2.95H4445.42z"/>
	</g>
	<g>
		<path class="st1" d="M1488.63,1436.12h-36.01v-14.23h95.75v14.23h-36.01v134.57h-23.72V1436.12z"/>
		<path class="st1" d="M1634.25,1567.23c-9.06,3.68-17.04,5.83-29.98,5.83c-28.47,0-51.32-16.83-51.32-58.24
			c0-28.47,11.43-49.17,43.77-49.17c33.22,0,39.47,22.21,39.47,42.05h-61.46c0,20.29,9.06,53.92,39.89,53.92
			c6.68,0,13.16-1.28,19.63-4.3V1567.23z M1614.84,1497.79c0-7.98-2.8-23.08-18.98-23.08c-16.83,0-20.06,17.25-20.49,23.08H1614.84z
			"/>
		<path class="st1" d="M1731.73,1567.89c-8.85,3.21-18.12,5.16-27.39,5.16c-32.57,0-51.54-19.62-51.54-57.8
			c0-30.62,14.01-49.61,43.56-49.61c27.6,0,36.88,14.67,36.88,35.8h-22.86c0-12.28-1.3-26.74-14.89-26.74
			c-12.5,0-18.98,14.68-18.98,33.21c0,25.03,10.57,53.69,36.88,53.69c6.25,0,12.29-1.51,18.33-3.88V1567.89z"/>
		<path class="st1" d="M1752.21,1421.89h21.78v70.52h0.43c3.45-7.56,13.37-26.76,36.02-26.76c18.11,0,25.88,15.1,25.88,29.99v75.04
			h-21.78v-64.27c0-12.95-1.95-24.59-12.95-24.59c-21.56,0-27.6,33.66-27.6,46.38v42.48h-21.78V1421.89z"/>
		<path class="st1" d="M1868.24,1468.02h21.78v24.39h0.43c3.45-7.56,13.37-26.76,36.01-26.76c18.11,0,25.88,15.1,25.88,29.99v75.04
			h-21.78v-64.27c0-12.95-1.95-24.59-12.95-24.59c-21.56,0-27.6,33.66-27.6,46.38v42.48h-21.78V1468.02z"/>
		<path class="st1" d="M1976.93,1519.37c0-34.72,15.1-53.72,45.29-53.72c30.19,0,45.5,19,45.5,53.72s-15.31,53.69-45.5,53.69
			C1992.03,1573.06,1976.93,1554.08,1976.93,1519.37z M2022.22,1563.99c19.41,0,21.78-25.87,21.78-44.63
			c0-18.78-2.37-44.65-21.78-44.65c-19.2,0-21.57,25.87-21.57,44.65C2000.65,1538.12,2003.03,1563.99,2022.22,1563.99z"/>
		<path class="st1" d="M2093.39,1421.89h21.78v148.8h-21.78V1421.89z"/>
		<path class="st1" d="M2141.04,1519.37c0-34.72,15.1-53.72,45.29-53.72c30.19,0,45.5,19,45.5,53.72s-15.31,53.69-45.5,53.69
			C2156.14,1573.06,2141.04,1554.08,2141.04,1519.37z M2186.33,1563.99c19.41,0,21.78-25.87,21.78-44.63
			c0-18.78-2.37-44.65-21.78-44.65c-19.2,0-21.57,25.87-21.57,44.65C2164.76,1538.12,2167.14,1563.99,2186.33,1563.99z"/>
		<path class="st1" d="M2336.65,1567.67c0,28.89-9.49,51.54-50.68,51.54c-13.16,0-21.78-2.15-29.54-4.1v-21.35
			c6.89,4.1,18.98,12.5,32.99,12.5c22.87,0,25.45-15.96,25.45-38.6v-11.22h-0.43c-3.01,4.96-9.06,14.23-26.74,14.23
			c-27.18,0-38.61-22.21-38.61-52.41c0-29.11,9.06-52.63,38.61-52.63c16.82,0,23.93,12.3,26.74,19.2h0.43v-16.83h21.78V1567.67z
			 M2293.52,1558.18c18.98,0,20.71-21.79,20.71-38.82c0-17.05-2.59-39.9-20.71-39.9c-17.47,0-20.71,22.21-20.71,38.82
			C2272.82,1535.75,2276.28,1558.18,2293.52,1558.18z"/>
		<path class="st1" d="M2392.51,1571.77l-39.47-103.76h22.65l26.96,73.34h0.43l24.15-73.34h20.5l-52.84,148.82h-17.47
			L2392.51,1571.77z"/>
		<path class="st1" d="M2447.3,1544.59h26.09v26.09h-26.09V1544.59z"/>
		<path class="st1" d="M2561.18,1421.89h33.43c40.76,0,67.5,14.01,67.5,72.89c0,61.9-26.53,75.91-67.5,75.91h-33.43V1421.89z
			 M2584.9,1556.46h9.71c36.66,0,43.78-21.79,43.78-61.68c0-52.41-18.98-58.66-43.78-58.66h-9.71V1556.46z"/>
		<path class="st1" d="M2688.2,1421.89h23.51v21.55h-23.51V1421.89z M2689.06,1468.02h21.78v102.67h-21.78V1468.02z"/>
		<path class="st1" d="M2795.65,1488.31c-7.34-4.96-15.52-10.13-25.89-10.13c-6.89,0-14.65,3.02-14.65,10.77
			c0,18.56,47.02,20.26,47.02,53.05c0,21.99-17.25,31.06-39.04,31.06c-13.16,0-22.21-2.79-27.39-4.52v-20.06
			c6.25,4.32,16.38,10.77,28.48,10.77c12.5,0,17.67-6.45,17.67-12.92c0-18.11-46.37-21.79-46.37-51.12
			c0-15.52,10.35-29.55,36.01-29.55c11,0,20.49,3.04,24.17,4.1V1488.31z"/>
		<path class="st1" d="M2898.74,1567.89c-8.87,3.21-18.13,5.16-27.4,5.16c-32.57,0-51.54-19.62-51.54-57.8
			c0-30.62,14.01-49.61,43.56-49.61c27.6,0,36.89,14.67,36.89,35.8h-22.88c0-12.28-1.28-26.74-14.88-26.74
			c-12.5,0-18.98,14.68-18.98,33.21c0,25.03,10.57,53.69,36.87,53.69c6.25,0,12.3-1.51,18.36-3.88V1567.89z"/>
		<path class="st1" d="M2919.45,1421.89h23.5v21.55h-23.5V1421.89z M2920.29,1468.02h21.79v102.67h-21.79V1468.02z"/>
		<path class="st1" d="M2975.29,1468.02h21.79v16.83h0.42c3.01-6.9,10.13-19.2,26.54-19.2c29.75,0,38.8,24.16,38.8,53.72
			c0,30.84-11.42,53.69-38.8,53.69c-17.27,0-23.52-11-26.54-16.6h-0.42v60.39h-21.79V1468.02z M3018.41,1560.56
			c17.05,0,20.71-23.3,20.71-41.19c0-17.05-3.24-39.9-20.71-39.9c-17.89,0-20.48,22.86-20.48,39.9
			C2997.93,1537.26,2999.66,1560.56,3018.41,1560.56z"/>
		<path class="st1" d="M3088.29,1421.89h21.79v148.8h-21.79V1421.89z"/>
		<path class="st1" d="M3143.49,1421.89h23.52v21.55h-23.52V1421.89z M3144.38,1468.02h21.77v102.67h-21.77V1468.02z"/>
		<path class="st1" d="M3199.36,1468.02h21.79v24.39h0.42c3.46-7.56,13.39-26.76,36.03-26.76c18.11,0,25.87,15.1,25.87,29.99v75.04
			h-21.77v-64.27c0-12.95-1.95-24.59-12.95-24.59c-21.55,0-27.6,33.66-27.6,46.38v42.48h-21.79V1468.02z"/>
		<path class="st1" d="M3389.15,1567.23c-9.07,3.68-17.05,5.83-30,5.83c-28.47,0-51.3-16.83-51.3-58.24
			c0-28.47,11.42-49.17,43.76-49.17c33.21,0,39.46,22.21,39.46,42.05h-61.45c0,20.29,9.04,53.92,39.9,53.92
			c6.67,0,13.15-1.28,19.62-4.3V1567.23z M3369.75,1497.79c0-7.98-2.82-23.08-18.98-23.08c-16.85,0-20.08,17.25-20.51,23.08H3369.75
			z"/>
		<path class="st1" d="M3410.28,1544.59h26.09v26.09h-26.09V1544.59z"/>
		<path class="st1" d="M3525.21,1421.89h23.72v148.8h-23.72V1421.89z"/>
		<path class="st1" d="M3583.02,1468.02h21.77v24.39h0.44c3.46-7.56,13.37-26.76,36-26.76c18.14,0,25.9,15.1,25.9,29.99v75.04
			h-21.77v-64.27c0-12.95-1.95-24.59-12.95-24.59c-21.57,0-27.62,33.66-27.62,46.38v42.48h-21.77V1468.02z"/>
		<path class="st1" d="M3699.06,1468.02h21.77v24.39h0.44c3.44-7.56,13.35-26.76,36-26.76c18.11,0,25.89,15.1,25.89,29.99v75.04
			h-21.79v-64.27c0-12.95-1.95-24.59-12.95-24.59c-21.57,0-27.6,33.66-27.6,46.38v42.48h-21.77V1468.02z"/>
		<path class="st1" d="M3807.73,1519.37c0-34.72,15.12-53.72,45.31-53.72s45.49,19,45.49,53.72s-15.3,53.69-45.49,53.69
			S3807.73,1554.08,3807.73,1519.37z M3853.05,1563.99c19.4,0,21.77-25.87,21.77-44.63c0-18.78-2.37-44.65-21.77-44.65
			c-19.2,0-21.59,25.87-21.59,44.65C3831.46,1538.12,3833.85,1563.99,3853.05,1563.99z"/>
		<path class="st1" d="M3908.03,1468.02h23.08l26.54,73.34h0.42l24.14-73.34h20.06l-36.25,102.67h-18.98L3908.03,1468.02z"/>
		<path class="st1" d="M4069.78,1556.46h-0.44c-3.44,6.03-12.5,16.6-28.89,16.6c-16.16,0-28.04-11.44-28.04-25.67
			c0-31.7,43.78-33.21,57.37-33.85v-9.07c0-11.19,0-29.75-14.45-29.75c-13.37,0-15.74,10.35-16.61,22.44h-22.86
			c1.06-15.32,7.12-31.5,39.46-31.5c33.43,0,36.22,18.78,36.22,38.82v66.22h-21.77V1556.46z M4069.78,1522.6
			c-9.04,0.64-33.65,2.57-33.65,21.55c0,9.29,5.41,15.32,12.5,15.32c7.56,0,21.15-7.34,21.15-24.81V1522.6z"/>
		<path class="st1" d="M4176.95,1571.55c-4.3,1.09-10.13,1.51-15.08,1.51c-20.48,0-32.37-6.25-32.37-26.09v-67.73h-16.38v-11.22
			h16.38v-24.14l21.77-13.15v37.29h28.07v11.22h-28.07v59.1c0,15.1,1.53,22.44,15.54,22.44c3.46,0,7.12-0.44,10.13-1.73V1571.55z"/>
		<path class="st1" d="M4198.94,1421.89h23.52v21.55h-23.52V1421.89z M4199.82,1468.02h21.77v102.67h-21.77V1468.02z"/>
		<path class="st1" d="M4247.49,1519.37c0-34.72,15.08-53.72,45.27-53.72c30.19,0,45.51,19,45.51,53.72s-15.32,53.69-45.51,53.69
			C4262.56,1573.06,4247.49,1554.08,4247.49,1519.37z M4292.76,1563.99c19.42,0,21.79-25.87,21.79-44.63
			c0-18.78-2.37-44.65-21.79-44.65c-19.2,0-21.55,25.87-21.55,44.65C4271.21,1538.12,4273.56,1563.99,4292.76,1563.99z"/>
		<path class="st1" d="M4362.86,1468.02h21.77v24.39h0.44c3.46-7.56,13.37-26.76,36-26.76c18.13,0,25.89,15.1,25.89,29.99v75.04
			h-21.77v-64.27c0-12.95-1.95-24.59-12.95-24.59c-21.57,0-27.62,33.66-27.62,46.38v42.48h-21.77V1468.02z"/>
		<path class="st1" d="M4473.93,1544.59H4500v26.09h-26.07V1544.59z"/>
	</g>
	<rect x="694.43" y="586.99" class="st2" width="387.77" height="387.79"/>
	<rect x="888.25" y="587.17" class="st3" width="193.89" height="193.88"/>
</g>
<g>
</g>
<g>
</g>
<g>
</g>
<g>
</g>
<g>
</g>
<g>
</g>
</svg>
